<svg width="17" height="29" viewBox="0 0 17 29" fill="none" xmlns="http://www.w3.org/2000/svg">
<path d="M10.8372 7.47852H6.72852V10.47H10.8372V7.47852Z" fill="white"/>
<path d="M10.8372 4.4873H6.72852V7.47883H10.8372V4.4873Z" fill="white"/>
<path d="M12.8914 2.99121H8.78271V5.98274H12.8914V2.99121Z" fill="white"/>
<path d="M17.0001 0H12.8914V2.99153H17.0001V0Z" fill="white"/>
<path d="M17.0001 1.49609H12.8914V4.48762H17.0001V1.49609Z" fill="white"/>
<path d="M12.8914 0H8.78271V2.99153H12.8914V0Z" fill="white"/>
<path d="M10.8372 1.49609H6.72852V4.48762H10.8372V1.49609Z" fill="white"/>
<path d="M8.78255 2.99121H4.67383V5.98274H8.78255V2.99121Z" fill="white"/>
<path d="M8.78255 5.9834H4.67383V28.4198H8.78255V5.9834Z" fill="white"/>
<path d="M10.1521 8.97461H5.35864V13.4619H10.1521V8.97461Z" fill="white"/>
<path d="M10.8372 13.4619H6.72852V16.4534H10.8372V13.4619Z" fill="white"/>
<path d="M10.8372 16.4531H6.72852V19.4447H10.8372V16.4531Z" fill="white"/>
<path d="M10.8372 19.4453H6.72852V22.4368H10.8372V19.4453Z" fill="white"/>
<path d="M10.8372 22.4365H6.72852V25.4281H10.8372V22.4365Z" fill="white"/>
<path d="M10.8372 25.4277H6.72852V28.4193H10.8372V25.4277Z" fill="white"/>
<path d="M5.35869 8.97461H0.565186V13.4619H5.35869V8.97461Z" fill="white"/>
<path d="M14.9458 8.97461H10.1523V13.4619H14.9458V8.97461Z" fill="white"/>
</svg>
