<svg width="28" height="28" viewBox="0 0 28 28" fill="none" xmlns="http://www.w3.org/2000/svg">
<path d="M20.7742 7.08691H19.3325V8.52856H20.7742V7.08691Z" fill="white"/>
<path d="M20.7742 5.64551H19.3325V7.08716H20.7742V5.64551Z" fill="white"/>
<path d="M20.0532 6.36621H18.6116V7.80786H20.0532V6.36621Z" fill="white"/>
<path d="M21.4951 6.36621H20.0535V7.80786H21.4951V6.36621Z" fill="white"/>
<path d="M10.8123 9.74023H7.92896V12.6235H10.8123V9.74023Z" fill="white"/>
<path d="M12.2539 8.29785H9.37061V11.1811H12.2539V8.29785Z" fill="white"/>
<path d="M15.1374 6.85645H12.2542V9.73974H15.1374V6.85645Z" fill="white"/>
<path d="M18.0205 8.29785H15.1372V11.1811H18.0205V8.29785Z" fill="white"/>
<path d="M9.3706 12.623H6.4873V15.5063H9.3706V12.623Z" fill="white"/>
<path d="M10.8123 15.5059H7.92896V18.3892H10.8123V15.5059Z" fill="white"/>
<path d="M19.4622 9.74023H16.5789V12.6235H19.4622V9.74023Z" fill="white"/>
<path d="M12.2539 16.9482H9.37061V19.8315H12.2539V16.9482Z" fill="white"/>
<path d="M15.1374 18.3896H12.2542V21.2729H15.1374V18.3896Z" fill="white"/>
<path d="M18.0205 16.9482H15.1372V19.8315H18.0205V16.9482Z" fill="white"/>
<path d="M19.4622 15.5059H16.5789V18.3892H19.4622V15.5059Z" fill="white"/>
<path d="M20.9038 12.623H18.0205V15.5063H20.9038V12.623Z" fill="white"/>
<path d="M6.12719 3.25293H3.2439V6.13622H6.12719V3.25293Z" fill="white"/>
<path d="M21.9851 6.13574H24.8684V3.25245L21.9851 3.25245V6.13574Z" fill="white"/>
<path d="M2.8833 9.01855H0V11.9018H2.8833V9.01855Z" fill="white"/>
<path d="M2.8833 6.13574H0V9.01904H2.8833V6.13574Z" fill="white"/>
<path d="M2.8833 11.9023H0V14.7856H2.8833V11.9023Z" fill="white"/>
<path d="M2.8833 14.7852H0V17.6685H2.8833V14.7852Z" fill="white"/>
<path d="M4.32495 4.69434H1.44165V7.57763H4.32495V4.69434Z" fill="white"/>
<path d="M12.9748 0.369141H10.0916V3.25244H12.9748V0.369141Z" fill="white"/>
<path d="M11.5332 0.369141H8.6499V3.25244H11.5332V0.369141Z" fill="white"/>
<path d="M7.20825 1.81055H4.32495V4.69384H7.20825V1.81055Z" fill="white"/>
<path d="M8.6499 0.369141H5.7666V3.25244H8.6499V0.369141Z" fill="white"/>
<path d="M15.8581 0.369141H12.9749V3.25244H15.8581V0.369141Z" fill="white"/>
<path d="M18.7414 0.369141H15.8582V3.25244H18.7414V0.369141Z" fill="white"/>
<path d="M15.8581 24.877H12.9749V27.7602H15.8581V24.877Z" fill="white"/>
<path d="M21.6248 0.369141H18.7415V3.25244H21.6248V0.369141Z" fill="white"/>
<path d="M12.9748 24.877H10.0916V27.7602H12.9748V24.877Z" fill="white"/>
<path d="M10.0915 24.877H7.20825V27.7602H10.0915V24.877Z" fill="white"/>
<path d="M7.20825 24.877H4.32495V27.7602H7.20825V24.877Z" fill="white"/>
<path d="M5.7666 23.4355H2.8833V26.3188H5.7666V23.4355Z" fill="white"/>
<path d="M4.32495 21.9941H1.44165V24.8774H4.32495V21.9941Z" fill="white"/>
<path d="M2.8833 20.5527H0V23.436H2.8833V20.5527Z" fill="white"/>
<path d="M2.8833 17.6689H0V20.5522H2.8833V17.6689Z" fill="white"/>
<path d="M24.5081 11.9023H27.3914V9.01905H24.5081V11.9023Z" fill="white"/>
<path d="M24.5081 9.01855H27.3914V6.13526H24.5081V9.01855Z" fill="white"/>
<path d="M24.5081 14.7852H27.3914V11.9019H24.5081V14.7852Z" fill="white"/>
<path d="M24.5081 17.6689H27.3914V14.7857H24.5081V17.6689Z" fill="white"/>
<path d="M23.0662 7.57715H25.9495V4.69385H23.0662V7.57715Z" fill="white"/>
<path d="M20.1829 4.69434H23.0662V1.81104L20.1829 1.81104V4.69434Z" fill="white"/>
<path d="M20.1829 27.7607H23.0662V24.8774H20.1829V27.7607Z" fill="white"/>
<path d="M15.8582 27.7607H18.7415V24.8774H15.8582V27.7607Z" fill="white"/>
<path d="M17.2998 27.7607H20.1831V24.8774H17.2998V27.7607Z" fill="white"/>
<path d="M21.6245 26.3184H24.5078V23.4351H21.6245V26.3184Z" fill="white"/>
<path d="M23.0662 24.877H25.9495V21.9937H23.0662V24.877Z" fill="white"/>
<path d="M24.5081 23.4355H27.3914V20.5523H24.5081V23.4355Z" fill="white"/>
<path d="M24.5081 20.5527H27.3914V17.6694H24.5081V20.5527Z" fill="white"/>
</svg>
