<svg width="191" height="27" viewBox="0 0 191 27" fill="none" xmlns="http://www.w3.org/2000/svg">
<path d="M3.85714 9.64286H5.78571V11.5714H3.85714V9.64286ZM5.78571 9.64286H7.71429V11.5714H5.78571V9.64286ZM5.78571 7.71429H7.71429V9.64286H5.78571V7.71429ZM7.71429 9.64286H9.64286V11.5714H7.71429V9.64286ZM7.71429 11.5714H9.64286V13.5H7.71429V11.5714ZM9.64286 11.5714H11.5714V13.5H9.64286V11.5714ZM5.78571 11.5714H7.71429V13.5H5.78571V11.5714ZM3.85714 11.5714H5.78571V13.5H3.85714V11.5714ZM1.92857 11.5714H3.85714V13.5H1.92857V11.5714ZM1.92857 13.5H3.85714V15.4286H1.92857V13.5ZM0 13.5H1.92857V15.4286H0V13.5ZM3.85714 13.5H5.78571V15.4286H3.85714V13.5ZM1.92857 15.4286H3.85714V17.3571H1.92857V15.4286ZM1.92857 17.3571H3.85714V19.2857H1.92857V17.3571ZM1.92857 19.2857H3.85714V21.2143H1.92857V19.2857ZM3.85714 19.2857H5.78571V21.2143H3.85714V19.2857ZM5.78571 19.2857H7.71429V21.2143H5.78571V19.2857ZM7.71429 19.2857H9.64286V21.2143H7.71429V19.2857ZM9.64286 19.2857H11.5714V21.2143H9.64286V19.2857ZM11.5714 19.2857H13.5V21.2143H11.5714V19.2857ZM11.5714 17.3571H13.5V19.2857H11.5714V17.3571ZM11.5714 15.4286H13.5V17.3571H11.5714V15.4286ZM11.5714 13.5H13.5V15.4286H11.5714V13.5ZM9.64286 13.5H11.5714V15.4286H9.64286V13.5ZM7.71429 13.5H9.64286V15.4286H7.71429V13.5ZM9.64286 15.4286H11.5714V17.3571H9.64286V15.4286ZM9.64286 17.3571H11.5714V19.2857H9.64286V17.3571ZM9.64286 21.2143H11.5714V23.1429H9.64286V21.2143ZM11.5714 21.2143H13.5V23.1429H11.5714V21.2143ZM11.5714 23.1429H13.5V25.0714H11.5714V23.1429ZM11.5714 25.0714H13.5V27H11.5714V25.0714ZM9.64286 25.0714H11.5714V27H9.64286V25.0714ZM9.64286 23.1429H11.5714V25.0714H9.64286V23.1429ZM7.71429 21.2143H9.64286V23.1429H7.71429V21.2143ZM5.78571 21.2143H7.71429V23.1429H5.78571V21.2143ZM3.85714 21.2143H5.78571V23.1429H3.85714V21.2143ZM1.92857 21.2143H3.85714V23.1429H1.92857V21.2143ZM1.92857 23.1429H3.85714V25.0714H1.92857V23.1429ZM1.92857 25.0714H3.85714V27H1.92857V25.0714ZM0 25.0714H1.92857V27H0V25.0714ZM0 23.1429H1.92857V25.0714H0V23.1429ZM0 21.2143H1.92857V23.1429H0V21.2143ZM0 19.2857H1.92857V21.2143H0V19.2857ZM0 17.3571H1.92857V19.2857H0V17.3571ZM0 15.4286H1.92857V17.3571H0V15.4286ZM15.4336 7.71429H17.3622V9.64286H15.4336V7.71429ZM17.3622 7.71429H19.2907V9.64286H17.3622V7.71429ZM19.2907 7.71429H21.2193V9.64286H19.2907V7.71429ZM21.2193 7.71429H23.1479V9.64286H21.2193V7.71429ZM23.1479 7.71429H25.0765V9.64286H23.1479V7.71429ZM25.0765 7.71429H27.005V9.64286H25.0765V7.71429ZM27.005 7.71429H28.9336V9.64286H27.005V7.71429ZM28.9336 7.71429H30.8622V9.64286H28.9336V7.71429ZM28.9336 9.64286H30.8622V11.5714H28.9336V9.64286ZM27.005 9.64286H28.9336V11.5714H27.005V9.64286ZM25.0765 9.64286H27.005V11.5714H25.0765V9.64286ZM23.1479 9.64286H25.0765V11.5714H23.1479V9.64286ZM15.4336 9.64286H17.3622V11.5714H15.4336V9.64286ZM17.3622 9.64286H19.2907V11.5714H17.3622V9.64286ZM19.2907 9.64286H21.2193V11.5714H19.2907V9.64286ZM21.2193 9.64286H23.1479V11.5714H21.2193V9.64286ZM27.005 11.5714H28.9336V13.5H27.005V11.5714ZM25.0765 11.5714H27.005V13.5H25.0765V11.5714ZM28.9336 11.5714H30.8622V13.5H28.9336V11.5714ZM25.0765 13.5H27.005V15.4286H25.0765V13.5ZM27.005 13.5H28.9336V15.4286H27.005V13.5ZM25.0765 15.4286H27.005V17.3571H25.0765V15.4286ZM23.1479 15.4286H25.0765V17.3571H23.1479V15.4286ZM23.1479 17.3571H25.0765V19.2857H23.1479V17.3571ZM21.2193 15.4286H23.1479V17.3571H21.2193V15.4286ZM23.1479 13.5H25.0765V15.4286H23.1479V13.5ZM21.2193 17.3571H23.1479V19.2857H21.2193V17.3571ZM19.2907 17.3571H21.2193V19.2857H19.2907V17.3571ZM19.2907 19.2857H21.2193V21.2143H19.2907V19.2857ZM21.2193 19.2857H23.1479V21.2143H21.2193V19.2857ZM17.3622 19.2857H19.2907V21.2143H17.3622V19.2857ZM17.3622 21.2143H19.2907V23.1429H17.3622V21.2143ZM15.4336 21.2143H17.3622V23.1429H15.4336V21.2143ZM19.2907 21.2143H21.2193V23.1429H19.2907V21.2143ZM19.2907 23.1429H21.2193V25.0714H19.2907V23.1429ZM17.3622 23.1429H19.2907V25.0714H17.3622V23.1429ZM17.3622 25.0714H19.2907V27H17.3622V25.0714ZM15.4336 25.0714H17.3622V27H15.4336V25.0714ZM15.4336 23.1429H17.3622V25.0714H15.4336V23.1429ZM19.2907 25.0714H21.2193V27H19.2907V25.0714ZM21.2193 25.0714H23.1479V27H21.2193V25.0714ZM23.1479 25.0714H25.0765V27H23.1479V25.0714ZM25.0765 25.0714H27.005V27H25.0765V25.0714ZM27.005 25.0714H28.9336V27H27.005V25.0714ZM27.005 23.1429H28.9336V25.0714H27.005V23.1429ZM28.9336 25.0714H30.8622V27H28.9336V25.0714ZM28.9336 23.1429H30.8622V25.0714H28.9336V23.1429ZM25.0765 23.1429H27.005V25.0714H25.0765V23.1429ZM21.2193 23.1429H23.1479V25.0714H21.2193V23.1429ZM23.1479 23.1429H25.0765V25.0714H23.1479V23.1429ZM34.7294 9.64286H36.6579V11.5714H34.7294V9.64286ZM42.4436 9.64286H44.3722V11.5714H42.4436V9.64286ZM42.4436 11.5714H44.3722V13.5H42.4436V11.5714ZM44.3722 9.64286H46.3008V11.5714H44.3722V9.64286ZM44.3722 11.5714H46.3008V13.5H44.3722V11.5714ZM44.3722 13.5H46.3008V15.4286H44.3722V13.5ZM44.3722 15.4286H46.3008V17.3571H44.3722V15.4286ZM44.3722 17.3571H46.3008V19.2857H44.3722V17.3571ZM44.3722 19.2857H46.3008V21.2143H44.3722V19.2857ZM44.3722 21.2143H46.3008V23.1429H44.3722V21.2143ZM44.3722 23.1429H46.3008V25.0714H44.3722V23.1429ZM42.4436 23.1429H44.3722V25.0714H42.4436V23.1429ZM42.4436 21.2143H44.3722V23.1429H42.4436V21.2143ZM42.4436 19.2857H44.3722V21.2143H42.4436V19.2857ZM42.4436 17.3571H44.3722V19.2857H42.4436V17.3571ZM42.4436 15.4286H44.3722V17.3571H42.4436V15.4286ZM42.4436 13.5H44.3722V15.4286H42.4436V13.5ZM40.5151 21.2143H42.4436V23.1429H40.5151V21.2143ZM40.5151 23.1429H42.4436V25.0714H40.5151V23.1429ZM42.4436 25.0714H44.3722V27H42.4436V25.0714ZM40.5151 25.0714H42.4436V27H40.5151V25.0714ZM38.5865 25.0714H40.5151V27H38.5865V25.0714ZM38.5865 23.1429H40.5151V25.0714H38.5865V23.1429ZM36.6579 25.0714H38.5865V27H36.6579V25.0714ZM34.7294 25.0714H36.6579V27H34.7294V25.0714ZM34.7294 23.1429H36.6579V25.0714H34.7294V23.1429ZM36.6579 23.1429H38.5865V25.0714H36.6579V23.1429ZM36.6579 21.2143H38.5865V23.1429H36.6579V21.2143ZM34.7294 21.2143H36.6579V23.1429H34.7294V21.2143ZM32.8008 23.1429H34.7294V25.0714H32.8008V23.1429ZM32.8008 21.2143H34.7294V23.1429H32.8008V21.2143ZM32.8008 19.2857H34.7294V21.2143H32.8008V19.2857ZM32.8008 17.3571H34.7294V19.2857H32.8008V17.3571ZM32.8008 15.4286H34.7294V17.3571H32.8008V15.4286ZM32.8008 13.5H34.7294V15.4286H32.8008V13.5ZM32.8008 11.5714H34.7294V13.5H32.8008V11.5714ZM34.7294 11.5714H36.6579V13.5H34.7294V11.5714ZM32.8008 9.64286H34.7294V11.5714H32.8008V9.64286ZM34.7294 13.5H36.6579V15.4286H34.7294V13.5ZM34.7294 15.4286H36.6579V17.3571H34.7294V15.4286ZM34.7294 17.3571H36.6579V19.2857H34.7294V17.3571ZM34.7294 19.2857H36.6579V21.2143H34.7294V19.2857ZM32.8008 7.71429H34.7294V9.64286H32.8008V7.71429ZM34.7294 7.71429H36.6579V9.64286H34.7294V7.71429ZM42.4436 7.71429H44.3722V9.64286H42.4436V7.71429ZM44.3722 7.71429H46.3008V9.64286H44.3722V7.71429ZM50.1629 17.3571H52.0915V19.2857H50.1629V17.3571ZM52.0915 17.3571H54.0201V19.2857H52.0915V17.3571ZM54.0201 17.3571H55.9487V19.2857H54.0201V17.3571ZM55.9487 17.3571H57.8772V19.2857H55.9487V17.3571ZM52.0915 19.2857H54.0201V21.2143H52.0915V19.2857ZM50.1629 19.2857H52.0915V21.2143H50.1629V19.2857ZM54.0201 19.2857H55.9487V21.2143H54.0201V19.2857ZM55.9487 19.2857H57.8772V21.2143H55.9487V19.2857ZM57.8772 21.2143H59.8058V23.1429H57.8772V21.2143ZM59.8058 19.2857H61.7344V21.2143H59.8058V19.2857ZM57.8772 19.2857H59.8058V21.2143H57.8772V19.2857ZM59.8058 21.2143H61.7344V23.1429H59.8058V21.2143ZM57.8772 23.1429H59.8058V25.0714H57.8772V23.1429ZM59.8058 23.1429H61.7344V25.0714H59.8058V23.1429ZM59.8058 25.0714H61.7344V27H59.8058V25.0714ZM57.8772 25.0714H59.8058V27H57.8772V25.0714ZM50.1629 25.0714H52.0915V27H50.1629V25.0714ZM48.2344 25.0714H50.1629V27H48.2344V25.0714ZM48.2344 23.1429H50.1629V25.0714H48.2344V23.1429ZM50.1629 23.1429H52.0915V25.0714H50.1629V23.1429ZM50.1629 21.2143H52.0915V23.1429H50.1629V21.2143ZM48.2344 21.2143H50.1629V23.1429H48.2344V21.2143ZM48.2344 19.2857H50.1629V21.2143H48.2344V19.2857ZM48.2344 17.3571H50.1629V19.2857H48.2344V17.3571ZM48.2344 15.4286H50.1629V17.3571H48.2344V15.4286ZM50.1629 15.4286H52.0915V17.3571H50.1629V15.4286ZM48.2344 7.71429H50.1629V9.64286H48.2344V7.71429ZM50.1629 7.71429H52.0915V9.64286H50.1629V7.71429ZM52.0915 7.71429H54.0201V9.64286H52.0915V7.71429ZM54.0201 7.71429H55.9487V9.64286H54.0201V7.71429ZM55.9487 7.71429H57.8772V9.64286H55.9487V7.71429ZM57.8772 7.71429H59.8058V9.64286H57.8772V7.71429ZM57.8772 9.64286H59.8058V11.5714H57.8772V9.64286ZM55.9487 9.64286H57.8772V11.5714H55.9487V9.64286ZM54.0201 9.64286H55.9487V11.5714H54.0201V9.64286ZM52.0915 9.64286H54.0201V11.5714H52.0915V9.64286ZM50.1629 9.64286H52.0915V11.5714H50.1629V9.64286ZM48.2344 9.64286H50.1629V11.5714H48.2344V9.64286ZM48.2344 11.5714H50.1629V13.5H48.2344V11.5714ZM48.2344 13.5H50.1629V15.4286H48.2344V13.5ZM50.1629 13.5H52.0915V15.4286H50.1629V13.5ZM50.1629 11.5714H52.0915V13.5H50.1629V11.5714ZM57.8772 11.5714H59.8058V13.5H57.8772V11.5714ZM59.8058 11.5714H61.7344V13.5H59.8058V11.5714ZM59.8058 9.64286H61.7344V11.5714H59.8058V9.64286ZM59.8058 13.5H61.7344V15.4286H59.8058V13.5ZM57.8772 13.5H59.8058V15.4286H57.8772V13.5ZM57.8772 15.4286H59.8058V17.3571H57.8772V15.4286ZM59.8058 15.4286H61.7344V17.3571H59.8058V15.4286ZM57.8772 17.3571H59.8058V19.2857H57.8772V17.3571ZM67.5251 7.71429H69.4537V9.64286H67.5251V7.71429ZM65.5965 7.71429H67.5251V9.64286H65.5965V7.71429ZM65.5965 9.64286H67.5251V11.5714H65.5965V9.64286ZM67.5251 9.64286H69.4537V11.5714H67.5251V9.64286ZM69.4537 9.64286H71.3823V11.5714H69.4537V9.64286ZM69.4537 7.71429H71.3823V9.64286H69.4537V7.71429ZM71.3823 7.71429H73.3108V9.64286H71.3823V7.71429ZM73.3108 7.71429H75.2394V9.64286H73.3108V7.71429ZM73.3108 9.64286H75.2394V11.5714H73.3108V9.64286ZM71.3823 9.64286H73.3108V11.5714H71.3823V9.64286ZM71.3823 11.5714H73.3108V13.5H71.3823V11.5714ZM73.3108 11.5714H75.2394V13.5H73.3108V11.5714ZM75.2394 9.64286H77.168V11.5714H75.2394V9.64286ZM75.2394 11.5714H77.168V13.5H75.2394V11.5714ZM75.2394 13.5H77.168V15.4286H75.2394V13.5ZM75.2394 15.4286H77.168V17.3571H75.2394V15.4286ZM75.2394 17.3571H77.168V19.2857H75.2394V17.3571ZM75.2394 19.2857H77.168V21.2143H75.2394V19.2857ZM75.2394 21.2143H77.168V23.1429H75.2394V21.2143ZM75.2394 23.1429H77.168V25.0714H75.2394V23.1429ZM73.3108 23.1429H75.2394V25.0714H73.3108V23.1429ZM73.3108 21.2143H75.2394V23.1429H73.3108V21.2143ZM73.3108 19.2857H75.2394V21.2143H73.3108V19.2857ZM73.3108 17.3571H75.2394V19.2857H73.3108V17.3571ZM73.3108 15.4286H75.2394V17.3571H73.3108V15.4286ZM73.3108 13.5H75.2394V15.4286H73.3108V13.5ZM71.3823 21.2143H73.3108V23.1429H71.3823V21.2143ZM71.3823 23.1429H73.3108V25.0714H71.3823V23.1429ZM73.3108 25.0714H75.2394V27H73.3108V25.0714ZM71.3823 25.0714H73.3108V27H71.3823V25.0714ZM69.4537 25.0714H71.3823V27H69.4537V25.0714ZM69.4537 23.1429H71.3823V25.0714H69.4537V23.1429ZM67.5251 25.0714H69.4537V27H67.5251V25.0714ZM65.5965 25.0714H67.5251V27H65.5965V25.0714ZM65.5965 23.1429H67.5251V25.0714H65.5965V23.1429ZM67.5251 23.1429H69.4537V25.0714H67.5251V23.1429ZM67.5251 21.2143H69.4537V23.1429H67.5251V21.2143ZM65.5965 21.2143H67.5251V23.1429H65.5965V21.2143ZM63.668 23.1429H65.5965V25.0714H63.668V23.1429ZM63.668 21.2143H65.5965V23.1429H63.668V21.2143ZM63.668 19.2857H65.5965V21.2143H63.668V19.2857ZM63.668 17.3571H65.5965V19.2857H63.668V17.3571ZM63.668 15.4286H65.5965V17.3571H63.668V15.4286ZM63.668 13.5H65.5965V15.4286H63.668V13.5ZM63.668 11.5714H65.5965V13.5H63.668V11.5714ZM65.5965 11.5714H67.5251V13.5H65.5965V11.5714ZM63.668 9.64286H65.5965V11.5714H63.668V9.64286ZM67.5251 11.5714H69.4537V13.5H67.5251V11.5714ZM65.5965 13.5H67.5251V15.4286H65.5965V13.5ZM65.5965 15.4286H67.5251V17.3571H65.5965V15.4286ZM65.5965 17.3571H67.5251V19.2857H65.5965V17.3571ZM65.5965 19.2857H67.5251V21.2143H65.5965V19.2857ZM84.8873 25.0714H86.8158V27H84.8873V25.0714ZM84.8873 23.1429H86.8158V25.0714H84.8873V23.1429ZM84.8873 21.2143H86.8158V23.1429H84.8873V21.2143ZM82.9587 23.1429H84.8873V25.0714H82.9587V23.1429ZM82.9587 21.2143H84.8873V23.1429H82.9587V21.2143ZM82.9587 19.2857H84.8873V21.2143H82.9587V19.2857ZM81.0301 21.2143H82.9587V23.1429H81.0301V21.2143ZM81.0301 19.2857H82.9587V21.2143H81.0301V19.2857ZM86.8158 21.2143H88.7444V23.1429H86.8158V21.2143ZM86.8158 23.1429H88.7444V25.0714H86.8158V23.1429ZM86.8158 19.2857H88.7444V21.2143H86.8158V19.2857ZM88.7444 19.2857H90.673V21.2143H88.7444V19.2857ZM88.7444 21.2143H90.673V23.1429H88.7444V21.2143ZM90.673 19.2857H92.6016V21.2143H90.673V19.2857ZM79.1016 19.2857H81.0301V21.2143H79.1016V19.2857ZM88.7444 7.71429H90.673V9.64286H88.7444V7.71429ZM90.673 7.71429H92.6016V9.64286H90.673V7.71429ZM90.673 9.64286H92.6016V11.5714H90.673V9.64286ZM90.673 11.5714H92.6016V13.5H90.673V11.5714ZM90.673 13.5H92.6016V15.4286H90.673V13.5ZM90.673 15.4286H92.6016V17.3571H90.673V15.4286ZM88.7444 15.4286H90.673V17.3571H88.7444V15.4286ZM88.7444 17.3571H90.673V19.2857H88.7444V17.3571ZM88.7444 13.5H90.673V15.4286H88.7444V13.5ZM88.7444 11.5714H90.673V13.5H88.7444V11.5714ZM88.7444 9.64286H90.673V11.5714H88.7444V9.64286ZM90.673 17.3571H92.6016V19.2857H90.673V17.3571ZM81.0301 17.3571H82.9587V19.2857H81.0301V17.3571ZM79.1016 17.3571H81.0301V19.2857H79.1016V17.3571ZM79.1016 15.4286H81.0301V17.3571H79.1016V15.4286ZM81.0301 15.4286H82.9587V17.3571H81.0301V15.4286ZM81.0301 13.5H82.9587V15.4286H81.0301V13.5ZM79.1016 13.5H81.0301V15.4286H79.1016V13.5ZM79.1016 11.5714H81.0301V13.5H79.1016V11.5714ZM81.0301 11.5714H82.9587V13.5H81.0301V11.5714ZM79.1016 7.71429H81.0301V9.64286H79.1016V7.71429ZM81.0301 7.71429H82.9587V9.64286H81.0301V7.71429ZM81.0301 9.64286H82.9587V11.5714H81.0301V9.64286ZM79.1016 9.64286H81.0301V11.5714H79.1016V9.64286ZM94.5352 7.71429H96.4637V9.64286H94.5352V7.71429ZM96.4637 7.71429H98.3923V9.64286H96.4637V7.71429ZM96.4637 9.64286H98.3923V11.5714H96.4637V9.64286ZM96.4637 11.5714H98.3923V13.5H96.4637V11.5714ZM96.4637 13.5H98.3923V15.4286H96.4637V13.5ZM94.5352 13.5H96.4637V15.4286H94.5352V13.5ZM94.5352 11.5714H96.4637V13.5H94.5352V11.5714ZM94.5352 9.64286H96.4637V11.5714H94.5352V9.64286ZM94.5352 15.4286H96.4637V17.3571H94.5352V15.4286ZM94.5352 17.3571H96.4637V19.2857H94.5352V17.3571ZM94.5352 19.2857H96.4637V21.2143H94.5352V19.2857ZM96.4637 17.3571H98.3923V19.2857H96.4637V17.3571ZM96.4637 15.4286H98.3923V17.3571H96.4637V15.4286ZM96.4637 19.2857H98.3923V21.2143H96.4637V19.2857ZM96.4637 21.2143H98.3923V23.1429H96.4637V21.2143ZM94.5352 23.1429H96.4637V25.0714H94.5352V23.1429ZM94.5352 21.2143H96.4637V23.1429H94.5352V21.2143ZM94.5352 25.0714H96.4637V27H94.5352V25.0714ZM96.4637 25.0714H98.3923V27H96.4637V25.0714ZM96.4637 23.1429H98.3923V25.0714H96.4637V23.1429ZM98.3923 25.0714H100.321V27H98.3923V25.0714ZM100.321 25.0714H102.249V27H100.321V25.0714ZM102.249 25.0714H104.178V27H102.249V25.0714ZM102.249 23.1429H104.178V25.0714H102.249V23.1429ZM100.321 23.1429H102.249V25.0714H100.321V23.1429ZM98.3923 23.1429H100.321V25.0714H98.3923V23.1429ZM98.3923 7.71429H100.321V9.64286H98.3923V7.71429ZM100.321 7.71429H102.249V9.64286H100.321V7.71429ZM102.249 7.71429H104.178V9.64286H102.249V7.71429ZM104.178 7.71429H106.107V9.64286H104.178V7.71429ZM102.249 9.64286H104.178V11.5714H102.249V9.64286ZM100.321 9.64286H102.249V11.5714H100.321V9.64286ZM98.3923 9.64286H100.321V11.5714H98.3923V9.64286ZM98.3923 17.3571H100.321V19.2857H98.3923V17.3571ZM100.321 15.4286H102.249V17.3571H100.321V15.4286ZM98.3923 15.4286H100.321V17.3571H98.3923V15.4286ZM100.321 17.3571H102.249V19.2857H100.321V17.3571ZM104.178 9.64286H106.107V11.5714H104.178V9.64286ZM104.178 23.1429H106.107V25.0714H104.178V23.1429ZM104.178 25.0714H106.107V27H104.178V25.0714ZM102.249 15.4286H104.178V17.3571H102.249V15.4286ZM102.249 17.3571H104.178V19.2857H102.249V17.3571ZM102.249 1.92857V3.85714H100.321V1.92857H102.249ZM102.249 3.85714V5.78571H100.321V3.85714H102.249ZM104.178 1.92857V3.85714H102.249V1.92857H104.178ZM104.178 0V1.92857H102.249V0H104.178ZM115.734 7.71429H117.663V9.64286H115.734V7.71429ZM117.663 7.71429H119.592V9.64286H117.663V7.71429ZM119.592 7.71429H121.52V9.64286H119.592V7.71429ZM121.52 7.71429H123.449V9.64286H121.52V7.71429ZM123.449 7.71429H125.377V9.64286H123.449V7.71429ZM125.377 7.71429H127.306V9.64286H125.377V7.71429ZM125.377 9.64286H127.306V11.5714H125.377V9.64286ZM123.449 9.64286H125.377V11.5714H123.449V9.64286ZM121.52 9.64286H123.449V11.5714H121.52V9.64286ZM119.592 9.64286H121.52V11.5714H119.592V9.64286ZM117.663 9.64286H119.592V11.5714H117.663V9.64286ZM115.734 9.64286H117.663V11.5714H115.734V9.64286ZM127.306 9.64286H129.234V11.5714H127.306V9.64286ZM125.377 11.5714H127.306V13.5H125.377V11.5714ZM127.306 11.5714H129.234V13.5H127.306V11.5714ZM127.306 13.5H129.234V15.4286H127.306V13.5ZM127.306 15.4286H129.234V17.3571H127.306V15.4286ZM125.377 15.4286H127.306V17.3571H125.377V15.4286ZM125.377 13.5H127.306V15.4286H125.377V13.5ZM125.377 17.3571H127.306V19.2857H125.377V17.3571ZM125.377 19.2857H127.306V21.2143H125.377V19.2857ZM123.449 19.2857H125.377V21.2143H123.449V19.2857ZM123.449 17.3571H125.377V19.2857H123.449V17.3571ZM121.52 17.3571H123.449V19.2857H121.52V17.3571ZM121.52 19.2857H123.449V21.2143H121.52V19.2857ZM119.592 19.2857H121.52V21.2143H119.592V19.2857ZM119.592 17.3571H121.52V19.2857H119.592V17.3571ZM117.663 17.3571H119.592V19.2857H117.663V17.3571ZM115.734 17.3571H117.663V19.2857H115.734V17.3571ZM115.734 19.2857H117.663V21.2143H115.734V19.2857ZM117.663 19.2857H119.592V21.2143H117.663V19.2857ZM115.734 11.5714H117.663V13.5H115.734V11.5714ZM117.663 11.5714H119.592V13.5H117.663V11.5714ZM117.663 13.5H119.592V15.4286H117.663V13.5ZM117.663 15.4286H119.592V17.3571H117.663V15.4286ZM115.734 13.5H117.663V15.4286H115.734V13.5ZM115.734 15.4286H117.663V17.3571H115.734V15.4286ZM115.734 21.2143H117.663V23.1429H115.734V21.2143ZM117.663 21.2143H119.592V23.1429H117.663V21.2143ZM117.663 23.1429H119.592V25.0714H117.663V23.1429ZM117.663 25.0714H119.592V27H117.663V25.0714ZM115.734 25.0714H117.663V27H115.734V25.0714ZM115.734 23.1429H117.663V25.0714H115.734V23.1429ZM127.306 17.3571H129.234V19.2857H127.306V17.3571ZM133.097 17.3571H135.025V19.2857H133.097V17.3571ZM135.025 17.3571H136.954V19.2857H135.025V17.3571ZM136.954 17.3571H138.882V19.2857H136.954V17.3571ZM138.882 17.3571H140.811V19.2857H138.882V17.3571ZM135.025 19.2857H136.954V21.2143H135.025V19.2857ZM133.097 19.2857H135.025V21.2143H133.097V19.2857ZM136.954 19.2857H138.882V21.2143H136.954V19.2857ZM138.882 19.2857H140.811V21.2143H138.882V19.2857ZM140.811 21.2143H142.739V23.1429H140.811V21.2143ZM142.739 19.2857H144.668V21.2143H142.739V19.2857ZM140.811 19.2857H142.739V21.2143H140.811V19.2857ZM142.739 21.2143H144.668V23.1429H142.739V21.2143ZM140.811 23.1429H142.739V25.0714H140.811V23.1429ZM142.739 23.1429H144.668V25.0714H142.739V23.1429ZM142.739 25.0714H144.668V27H142.739V25.0714ZM140.811 25.0714H142.739V27H140.811V25.0714ZM133.097 25.0714H135.025V27H133.097V25.0714ZM131.168 25.0714H133.097V27H131.168V25.0714ZM131.168 23.1429H133.097V25.0714H131.168V23.1429ZM133.097 23.1429H135.025V25.0714H133.097V23.1429ZM133.097 21.2143H135.025V23.1429H133.097V21.2143ZM131.168 21.2143H133.097V23.1429H131.168V21.2143ZM131.168 19.2857H133.097V21.2143H131.168V19.2857ZM131.168 17.3571H133.097V19.2857H131.168V17.3571ZM131.168 15.4286H133.097V17.3571H131.168V15.4286ZM133.097 15.4286H135.025V17.3571H133.097V15.4286ZM131.168 7.71429H133.097V9.64286H131.168V7.71429ZM133.097 7.71429H135.025V9.64286H133.097V7.71429ZM135.025 7.71429H136.954V9.64286H135.025V7.71429ZM136.954 7.71429H138.882V9.64286H136.954V7.71429ZM138.882 7.71429H140.811V9.64286H138.882V7.71429ZM140.811 7.71429H142.739V9.64286H140.811V7.71429ZM140.811 9.64286H142.739V11.5714H140.811V9.64286ZM138.882 9.64286H140.811V11.5714H138.882V9.64286ZM136.954 9.64286H138.882V11.5714H136.954V9.64286ZM135.025 9.64286H136.954V11.5714H135.025V9.64286ZM133.097 9.64286H135.025V11.5714H133.097V9.64286ZM131.168 9.64286H133.097V11.5714H131.168V9.64286ZM131.168 11.5714H133.097V13.5H131.168V11.5714ZM131.168 13.5H133.097V15.4286H131.168V13.5ZM133.097 13.5H135.025V15.4286H133.097V13.5ZM133.097 11.5714H135.025V13.5H133.097V11.5714ZM140.811 11.5714H142.739V13.5H140.811V11.5714ZM142.739 11.5714H144.668V13.5H142.739V11.5714ZM142.739 9.64286H144.668V11.5714H142.739V9.64286ZM142.739 13.5H144.668V15.4286H142.739V13.5ZM140.811 13.5H142.739V15.4286H140.811V13.5ZM140.811 15.4286H142.739V17.3571H140.811V15.4286ZM142.739 15.4286H144.668V17.3571H142.739V15.4286ZM140.811 17.3571H142.739V19.2857H140.811V17.3571ZM150.459 9.64286H152.387V11.5714H150.459V9.64286ZM152.387 9.64286H154.316V11.5714H152.387V9.64286ZM152.387 7.71429H154.316V9.64286H152.387V7.71429ZM154.316 9.64286H156.244V11.5714H154.316V9.64286ZM154.316 11.5714H156.244V13.5H154.316V11.5714ZM156.244 11.5714H158.173V13.5H156.244V11.5714ZM152.387 11.5714H154.316V13.5H152.387V11.5714ZM150.459 11.5714H152.387V13.5H150.459V11.5714ZM148.53 11.5714H150.459V13.5H148.53V11.5714ZM148.53 13.5H150.459V15.4286H148.53V13.5ZM146.602 13.5H148.53V15.4286H146.602V13.5ZM150.459 13.5H152.387V15.4286H150.459V13.5ZM148.53 15.4286H150.459V17.3571H148.53V15.4286ZM148.53 17.3571H150.459V19.2857H148.53V17.3571ZM148.53 19.2857H150.459V21.2143H148.53V19.2857ZM150.459 19.2857H152.387V21.2143H150.459V19.2857ZM152.387 19.2857H154.316V21.2143H152.387V19.2857ZM154.316 19.2857H156.244V21.2143H154.316V19.2857ZM156.244 19.2857H158.173V21.2143H156.244V19.2857ZM158.173 19.2857H160.102V21.2143H158.173V19.2857ZM158.173 17.3571H160.102V19.2857H158.173V17.3571ZM158.173 15.4286H160.102V17.3571H158.173V15.4286ZM158.173 13.5H160.102V15.4286H158.173V13.5ZM156.244 13.5H158.173V15.4286H156.244V13.5ZM154.316 13.5H156.244V15.4286H154.316V13.5ZM156.244 15.4286H158.173V17.3571H156.244V15.4286ZM156.244 17.3571H158.173V19.2857H156.244V17.3571ZM156.244 21.2143H158.173V23.1429H156.244V21.2143ZM158.173 21.2143H160.102V23.1429H158.173V21.2143ZM158.173 23.1429H160.102V25.0714H158.173V23.1429ZM158.173 25.0714H160.102V27H158.173V25.0714ZM156.244 25.0714H158.173V27H156.244V25.0714ZM156.244 23.1429H158.173V25.0714H156.244V23.1429ZM154.316 21.2143H156.244V23.1429H154.316V21.2143ZM152.387 21.2143H154.316V23.1429H152.387V21.2143ZM150.459 21.2143H152.387V23.1429H150.459V21.2143ZM148.53 21.2143H150.459V23.1429H148.53V21.2143ZM148.53 23.1429H150.459V25.0714H148.53V23.1429ZM148.53 25.0714H150.459V27H148.53V25.0714ZM146.602 25.0714H148.53V27H146.602V25.0714ZM146.602 23.1429H148.53V25.0714H146.602V23.1429ZM146.602 21.2143H148.53V23.1429H146.602V21.2143ZM146.602 19.2857H148.53V21.2143H146.602V19.2857ZM146.602 17.3571H148.53V19.2857H146.602V17.3571ZM146.602 15.4286H148.53V17.3571H146.602V15.4286ZM154.316 1.92857V3.85714H152.387V1.92857H154.316ZM154.316 3.85714V5.78571H152.387V3.85714H154.316ZM156.244 1.92857V3.85714H154.316V1.92857H156.244ZM156.244 0V1.92857H154.316V0H156.244ZM167.821 25.0714H169.749V27H167.821V25.0714ZM167.821 23.1429H169.749V25.0714H167.821V23.1429ZM167.821 21.2143H169.749V23.1429H167.821V21.2143ZM165.892 23.1429H167.821V25.0714H165.892V23.1429ZM165.892 21.2143H167.821V23.1429H165.892V21.2143ZM165.892 19.2857H167.821V21.2143H165.892V19.2857ZM163.964 21.2143H165.892V23.1429H163.964V21.2143ZM163.964 19.2857H165.892V21.2143H163.964V19.2857ZM169.749 21.2143H171.678V23.1429H169.749V21.2143ZM169.749 23.1429H171.678V25.0714H169.749V23.1429ZM169.749 19.2857H171.678V21.2143H169.749V19.2857ZM171.678 19.2857H173.607V21.2143H171.678V19.2857ZM171.678 21.2143H173.607V23.1429H171.678V21.2143ZM173.607 19.2857H175.535V21.2143H173.607V19.2857ZM162.035 19.2857H163.964V21.2143H162.035V19.2857ZM171.678 7.71429H173.607V9.64286H171.678V7.71429ZM173.607 7.71429H175.535V9.64286H173.607V7.71429ZM173.607 9.64286H175.535V11.5714H173.607V9.64286ZM173.607 11.5714H175.535V13.5H173.607V11.5714ZM173.607 13.5H175.535V15.4286H173.607V13.5ZM173.607 15.4286H175.535V17.3571H173.607V15.4286ZM171.678 15.4286H173.607V17.3571H171.678V15.4286ZM171.678 17.3571H173.607V19.2857H171.678V17.3571ZM171.678 13.5H173.607V15.4286H171.678V13.5ZM171.678 11.5714H173.607V13.5H171.678V11.5714ZM171.678 9.64286H173.607V11.5714H171.678V9.64286ZM173.607 17.3571H175.535V19.2857H173.607V17.3571ZM163.964 17.3571H165.892V19.2857H163.964V17.3571ZM162.035 17.3571H163.964V19.2857H162.035V17.3571ZM162.035 15.4286H163.964V17.3571H162.035V15.4286ZM163.964 15.4286H165.892V17.3571H163.964V15.4286ZM163.964 13.5H165.892V15.4286H163.964V13.5ZM162.035 13.5H163.964V15.4286H162.035V13.5ZM162.035 11.5714H163.964V13.5H162.035V11.5714ZM163.964 11.5714H165.892V13.5H163.964V11.5714ZM162.035 7.71429H163.964V9.64286H162.035V7.71429ZM163.964 7.71429H165.892V9.64286H163.964V7.71429ZM163.964 9.64286H165.892V11.5714H163.964V9.64286ZM162.035 9.64286H163.964V11.5714H162.035V9.64286ZM181.326 7.71429H183.254V9.64286H181.326V7.71429ZM179.397 7.71429H181.326V9.64286H179.397V7.71429ZM179.397 9.64286H181.326V11.5714H179.397V9.64286ZM181.326 9.64286H183.254V11.5714H181.326V9.64286ZM183.254 9.64286H185.183V11.5714H183.254V9.64286ZM183.254 7.71429H185.183V9.64286H183.254V7.71429ZM185.183 7.71429H187.112V9.64286H185.183V7.71429ZM187.112 7.71429H189.04V9.64286H187.112V7.71429ZM187.112 9.64286H189.04V11.5714H187.112V9.64286ZM185.183 9.64286H187.112V11.5714H185.183V9.64286ZM185.183 11.5714H187.112V13.5H185.183V11.5714ZM187.112 11.5714H189.04V13.5H187.112V11.5714ZM189.04 9.64286H190.969V11.5714H189.04V9.64286ZM189.04 11.5714H190.969V13.5H189.04V11.5714ZM189.04 13.5H190.969V15.4286H189.04V13.5ZM189.04 15.4286H190.969V17.3571H189.04V15.4286ZM189.04 17.3571H190.969V19.2857H189.04V17.3571ZM189.04 19.2857H190.969V21.2143H189.04V19.2857ZM189.04 21.2143H190.969V23.1429H189.04V21.2143ZM189.04 23.1429H190.969V25.0714H189.04V23.1429ZM187.112 23.1429H189.04V25.0714H187.112V23.1429ZM187.112 21.2143H189.04V23.1429H187.112V21.2143ZM187.112 19.2857H189.04V21.2143H187.112V19.2857ZM187.112 17.3571H189.04V19.2857H187.112V17.3571ZM187.112 15.4286H189.04V17.3571H187.112V15.4286ZM187.112 13.5H189.04V15.4286H187.112V13.5ZM185.183 21.2143H187.112V23.1429H185.183V21.2143ZM185.183 23.1429H187.112V25.0714H185.183V23.1429ZM187.112 25.0714H189.04V27H187.112V25.0714ZM185.183 25.0714H187.112V27H185.183V25.0714ZM183.254 25.0714H185.183V27H183.254V25.0714ZM183.254 23.1429H185.183V25.0714H183.254V23.1429ZM181.326 25.0714H183.254V27H181.326V25.0714ZM179.397 25.0714H181.326V27H179.397V25.0714ZM179.397 23.1429H181.326V25.0714H179.397V23.1429ZM181.326 23.1429H183.254V25.0714H181.326V23.1429ZM181.326 21.2143H183.254V23.1429H181.326V21.2143ZM179.397 21.2143H181.326V23.1429H179.397V21.2143ZM177.469 23.1429H179.397V25.0714H177.469V23.1429ZM177.469 21.2143H179.397V23.1429H177.469V21.2143ZM177.469 19.2857H179.397V21.2143H177.469V19.2857ZM177.469 17.3571H179.397V19.2857H177.469V17.3571ZM177.469 15.4286H179.397V17.3571H177.469V15.4286ZM177.469 13.5H179.397V15.4286H177.469V13.5ZM177.469 11.5714H179.397V13.5H177.469V11.5714ZM179.397 11.5714H181.326V13.5H179.397V11.5714ZM177.469 9.64286H179.397V11.5714H177.469V9.64286ZM181.326 11.5714H183.254V13.5H181.326V11.5714ZM179.397 13.5H181.326V15.4286H179.397V13.5ZM179.397 15.4286H181.326V17.3571H179.397V15.4286ZM179.397 17.3571H181.326V19.2857H179.397V17.3571ZM179.397 19.2857H181.326V21.2143H179.397V19.2857Z" fill="white"/>
</svg>
