<svg width="58" height="58" viewBox="0 0 58 58" fill="none" xmlns="http://www.w3.org/2000/svg">
<path d="M14.5 11.6001H8.69995V17.4001H14.5V11.6001Z" fill="white"/>
<path d="M17.4001 8.69995H11.6001V14.5H17.4001V8.69995Z" fill="white"/>
<path d="M20.3 5.80005H14.5V11.6H20.3V5.80005Z" fill="white"/>
<path d="M26.1 5.80005H20.3V11.6H26.1V5.80005Z" fill="white"/>
<path d="M31.9001 5.80005H26.1001V11.6H31.9001V5.80005Z" fill="white"/>
<path d="M34.8 8.69995H29V14.5H34.8V8.69995Z" fill="white"/>
<path d="M37.6999 11.6001H31.8999V17.4001H37.6999V11.6001Z" fill="white"/>
<path d="M40.6 14.5H34.8V20.3H40.6V14.5Z" fill="white"/>
<path d="M40.6 20.3H34.8V26.1H40.6V20.3Z" fill="white"/>
<path d="M40.6 26.1001H34.8V31.9001H40.6V26.1001Z" fill="white"/>
<path d="M37.6999 29H31.8999V34.8H37.6999V29Z" fill="white"/>
<path d="M34.8 31.8999H29V37.6999H34.8V31.8999Z" fill="white"/>
<path d="M37.6999 31.8999H31.8999V37.6999H37.6999V31.8999Z" fill="white"/>
<path d="M40.6 34.8H34.8V40.6H40.6V34.8Z" fill="white"/>
<path d="M43.5 37.7H37.7V43.5H43.5V37.7Z" fill="white"/>
<path d="M46.4001 40.6001H40.6001V46.4001H46.4001V40.6001Z" fill="white"/>
<path d="M49.3 43.5H43.5V49.3H49.3V43.5Z" fill="white"/>
<path d="M29.0001 17.3999H26.1001V20.2999H29.0001V17.3999Z" fill="white"/>
<path d="M26.1 14.5H23.2V17.4H26.1V14.5Z" fill="white"/>
<path d="M31.9 20.3H29V23.2H31.9V20.3Z" fill="white"/>
<path d="M31.9001 34.8H26.1001V40.6H31.9001V34.8Z" fill="white"/>
<path d="M26.1 34.8H20.3V40.6H26.1V34.8Z" fill="white"/>
<path d="M20.3 34.8H14.5V40.6H20.3V34.8Z" fill="white"/>
<path d="M17.4001 31.8999H11.6001V37.6999H17.4001V31.8999Z" fill="white"/>
<path d="M14.5 29H8.69995V34.8H14.5V29Z" fill="white"/>
<path d="M11.6 26.1001H5.80005V31.9001H11.6V26.1001Z" fill="white"/>
<path d="M11.6 20.3H5.80005V26.1H11.6V20.3Z" fill="white"/>
<path d="M11.6 14.5H5.80005V20.3H11.6V14.5Z" fill="white"/>
</svg>
