<svg width="39" height="29" viewBox="0 0 39 29" fill="none" xmlns="http://www.w3.org/2000/svg">
<path d="M2.40674 5.35645H6.85023V10.1436H2.40674V5.35645Z" fill="white"/>
<path d="M4.4436 3.05859H9.07224V7.65426H4.4436V3.05859Z" fill="white"/>
<path d="M6.85034 0.760742H24.9946V5.3564H6.85034V0.760742Z" fill="white"/>
<path d="M24.9946 0.760742H31.845V5.3564H24.9946V0.760742Z" fill="white"/>
<path d="M29.623 3.05859H34.2517V7.65426H29.623V3.05859Z" fill="white"/>
<path d="M16.478 10.1436H20.9215V14.7392H16.478V10.1436Z" fill="white"/>
<path d="M18.6997 12.4414H23.3283V17.0371H18.6997V12.4414Z" fill="white"/>
<path d="M34.2517 7.8457H38.6952V21.8242H34.2517V7.8457Z" fill="white"/>
<path d="M6.85034 24.1221H31.845V28.7177H6.85034V24.1221Z" fill="white"/>
<path d="M0 12.4414H4.44349V21.8242H0V12.4414Z" fill="white"/>
<path d="M29.623 21.8242H34.2517V26.4199H29.623V21.8242Z" fill="white"/>
<path d="M31.845 19.335H36.2885V24.1221H31.845V19.335Z" fill="white"/>
<path d="M0 7.8457H4.44349V12.4414H0V7.8457Z" fill="white"/>
<path d="M31.845 5.35645H36.2885V10.1436H31.845V5.35645Z" fill="white"/>
<path d="M4.4436 21.8242H9.07224V26.4199H4.4436V21.8242Z" fill="white"/>
<path d="M2.40674 19.335H6.85023V24.1221H2.40674V19.335Z" fill="white"/>
<path d="M16.478 14.7393H20.9215V19.3349H16.478V14.7393Z" fill="white"/>
</svg>
